<?xml version="1.0" encoding="UTF-8" standalone="yes"?>
<svg xmlns="http://www.w3.org/2000/svg" xmlns:xlink="http://www.w3.org/1999/xlink" width="40pt" height="40pt" viewBox="0 0 40 40" version="1.1" fill="#000000">
  <g id="surface127659">
    <path style=" stroke:none;fill-rule:nonzero;fill:#000000;fill-opacity:1;" d="M 5.601562 15.910156 C 4.164062 17.210938 3.199219 19.113281 3.199219 22.65625 L 3.199219 35.03125 C 3.199219 36.066406 3.886719 37.601562 5.777344 37.601562 L 9.808594 37.601562 L 9.800781 36.792969 C 9.789062 35.800781 9.382812 34.054688 8 33.5625 L 8 30.316406 C 9.832031 29.648438 11.675781 28.113281 12.113281 27.625 C 12.992188 26.808594 17.171875 27.324219 20.800781 28.296875 L 20.800781 35.089844 C 20.875 36.097656 21.65625 37.601562 23.503906 37.601562 L 27.148438 37.601562 L 27.199219 36.855469 C 27.210938 36.671875 27.292969 35.0625 26.402344 34.105469 C 26.175781 33.863281 25.902344 33.679688 25.601562 33.570312 L 25.601562 28.324219 C 26.453125 27.550781 28.886719 25.113281 29.605469 21.941406 C 29.953125 20.390625 31.152344 15.726562 31.34375 14.992188 C 31.441406 14.878906 31.957031 14.398438 33.761719 14.398438 C 35.152344 14.398438 36.320312 13.605469 37.046875 12.164062 C 37.070312 12.121094 37.074219 12.117188 37.542969 10.957031 L 37.855469 10.183594 L 34.066406 8.832031 C 33.980469 7.667969 33.269531 6.097656 30.96875 5.652344 C 31.101562 5.140625 31.199219 4.433594 31.199219 3.199219 L 31.199219 1.910156 L 30.042969 2.484375 C 29.90625 2.550781 26.664062 4.171875 25.042969 6.234375 C 25.042969 6.234375 24.335938 7.109375 24.308594 7.144531 C 24.226562 7.25 23.492188 8.25 23.394531 8.390625 C 23.335938 8.464844 22.328125 9.992188 21.894531 10.820312 C 21.730469 11.164062 21.527344 11.492188 21.289062 11.796875 C 20.066406 13.367188 18.285156 13.578125 17.585938 13.601562 C 17.589844 13.699219 17.578125 14.210938 17.578125 14.210938 C 17.3125 16.230469 16.320312 17.84375 15.664062 18.917969 C 15.554688 19.09375 15.351562 19.425781 15.246094 19.625 L 15.046875 22.703125 L 11.96875 21.515625 L 11.9375 21.503906 L 11.910156 21.488281 C 10.273438 20.78125 9.8125 18.628906 9.59375 16.835938 C 9.589844 16.78125 8.933594 13.183594 10.207031 13.007812 C 10.265625 13.007812 11.402344 12.492188 11.34375 16.660156 C 11.585938 18.613281 11.878906 19.734375 12.546875 20.023438 L 13.589844 20.425781 L 13.664062 19.292969 C 13.675781 19.097656 14.039062 18.507812 14.300781 18.078125 C 14.921875 17.066406 15.769531 15.679688 15.992188 14 L 16 13.894531 C 16 10.644531 13.402344 8 10.207031 8 C 7.125 8 4.800781 10.152344 4.800781 13.007812 C 4.800781 13.007812 4.773438 15.355469 5.601562 15.910156 Z M 5.601562 15.910156 "/>
  </g>
</svg>