<?xml version="1.0" encoding="UTF-8" standalone="yes"?>
<svg xmlns="http://www.w3.org/2000/svg" xmlns:xlink="http://www.w3.org/1999/xlink" width="40pt" height="40pt" viewBox="0 0 40 40" version="1.1" fill="#000000">
  <g id="surface127736">
    <path style=" stroke:none;fill-rule:nonzero;fill:#000000;fill-opacity:1;" d="M 3.34375 19.46875 C 4.34375 21.875 6.6875 23.4375 9.28125 23.4375 L 18.125 23.4375 C 18.65625 23.4375 19.0625 23.03125 19.0625 22.5 C 19.0625 21.96875 18.65625 21.5625 18.125 21.5625 L 9.28125 21.5625 C 7.4375 21.5625 5.78125 20.46875 5.0625 18.75 L 3.34375 14.625 C 3.15625 14.15625 2.59375 13.90625 2.125 14.125 C 1.65625 14.3125 1.40625 14.875 1.625 15.34375 Z M 35.21875 29.21875 C 34.25 27.59375 32.46875 26.5625 30.59375 26.5625 C 30.0625 26.5625 29.65625 26.96875 29.65625 27.5 C 29.65625 28.03125 30.0625 28.4375 30.59375 28.4375 C 31.84375 28.4375 33 29.09375 33.625 30.15625 L 33.9375 30.6875 C 34.15625 31.03125 34 31.34375 33.9375 31.46875 C 33.875 31.59375 33.65625 31.875 33.25 31.875 C 33 31.875 32.75 31.75 32.59375 31.53125 C 32.3125 31.09375 31.71875 30.96875 31.28125 31.28125 C 30.84375 31.5625 30.71875 32.15625 31.03125 32.59375 C 31.53125 33.34375 32.34375 33.78125 33.25 33.78125 C 34.21875 33.78125 35.09375 33.28125 35.5625 32.4375 C 36.03125 31.59375 36.03125 30.59375 35.53125 29.78125 Z M 11.5625 37.8125 C 11.03125 37.8125 10.625 38.21875 10.625 38.75 C 10.625 39.28125 11.03125 39.6875 11.5625 39.6875 C 12.21875 39.6875 12.84375 39.375 13.25 38.84375 C 13.65625 38.3125 13.8125 37.625 13.625 37 L 13.0625 34.78125 C 12.9375 34.28125 12.4375 33.96875 11.90625 34.09375 C 11.40625 34.21875 11.09375 34.71875 11.21875 35.25 L 11.78125 37.46875 C 11.8125 37.59375 11.75 37.65625 11.71875 37.71875 C 11.75 37.75 11.6875 37.8125 11.5625 37.8125 Z M 11.5625 37.8125 "/>
    <path style=" stroke:none;fill-rule:nonzero;fill:#000000;fill-opacity:1;" d="M 38.75 16.25 L 35.21875 16.25 C 35.03125 15.25 34.5625 14.34375 33.8125 13.625 C 32.875 12.6875 31.59375 12.15625 30.28125 12.15625 C 30.25 12.15625 30.25 12.15625 30.21875 12.15625 L 28.03125 12.1875 C 27.65625 11.3125 26.75 10.6875 25.75 10.6875 C 22.65625 10.6875 20.09375 13.21875 20.09375 16.3125 L 20.09375 19.34375 C 20.09375 20.4375 20.5 21.46875 21.28125 22.25 C 22.0625 23.03125 23.09375 23.4375 24.1875 23.4375 C 26.4375 23.4375 28.28125 21.59375 28.28125 19.34375 L 28.28125 14.0625 L 30.3125 14.03125 C 31.15625 14.03125 31.96875 14.34375 32.5625 14.9375 C 33.15625 15.53125 33.5 16.34375 33.5 17.1875 C 33.5 17.71875 33.90625 18.125 34.4375 18.125 L 37.875 18.125 C 37.875 18.3125 37.875 18.5 37.875 18.71875 L 37.875 18.875 C 37.875 20.34375 37.59375 21.34375 37.0625 21.875 C 36.3125 22.625 34.84375 22.5625 33.28125 22.53125 C 31.71875 22.5 30.09375 22.4375 28.625 23.125 C 25.3125 24.6875 24.96875 31.59375 25.25 37.09375 C 25.25 37.28125 25.1875 37.46875 25.0625 37.59375 C 24.9375 37.71875 24.75 37.8125 24.5625 37.8125 C 24.25 37.8125 23.96875 37.59375 23.90625 37.28125 C 23.6875 36.375 23.5625 36.0625 23.5 35.875 C 21.96875 32.3125 18.5 30 14.625 30 L 14.4375 30 C 10.65625 30 7.28125 32.28125 5.875 35.78125 C 5.84375 35.875 5.75 36.0625 5.46875 37.21875 C 5.375 37.5625 5.0625 37.8125 4.6875 37.8125 C 4.34375 37.8125 4.15625 37.625 4.0625 37.5 C 3.96875 37.375 3.84375 37.15625 3.90625 36.8125 L 4.78125 32.75 C 4.84375 32.4375 4.90625 32.125 4.96875 31.8125 C 5.4375 29.5625 5.875 27.4375 7.21875 25.96875 C 7.5625 25.59375 7.53125 25 7.15625 24.65625 C 6.78125 24.3125 6.1875 24.34375 5.84375 24.71875 C 4.15625 26.59375 3.65625 28.9375 3.15625 31.46875 C 3.09375 31.78125 3.03125 32.0625 2.96875 32.375 L 2.09375 36.4375 C 1.9375 37.25 2.125 38.0625 2.625 38.6875 C 3.125 39.3125 3.90625 39.6875 4.71875 39.6875 C 5.9375 39.6875 7 38.875 7.3125 37.6875 C 7.5625 36.71875 7.65625 36.5 7.65625 36.46875 C 8.78125 33.65625 11.46875 31.875 14.5 31.875 L 14.6875 31.875 C 17.8125 31.875 20.59375 33.71875 21.78125 36.59375 C 21.8125 36.6875 21.90625 36.9375 22.09375 37.71875 C 22.375 38.875 23.40625 39.6875 24.59375 39.6875 C 25.28125 39.6875 25.96875 39.40625 26.4375 38.875 C 26.90625 38.375 27.1875 37.6875 27.125 36.96875 C 26.71875 30.3125 27.625 25.625 29.375 24.8125 C 30.40625 24.3125 31.8125 24.375 33.15625 24.40625 C 35.03125 24.46875 36.96875 24.5 38.28125 23.21875 C 39.21875 22.3125 39.65625 20.875 39.65625 18.875 L 39.65625 18.71875 C 39.65625 17.8125 39.65625 17.1875 39.65625 17.1875 C 39.6875 16.65625 39.28125 16.25 38.75 16.25 Z M 38.75 16.25 "/>
    <path style=" stroke:none;fill-rule:nonzero;fill:#000000;fill-opacity:1;" d="M 30.3125 15.3125 C 29.792969 15.3125 29.375 15.730469 29.375 16.25 C 29.375 16.769531 29.792969 17.1875 30.3125 17.1875 C 30.832031 17.1875 31.25 16.769531 31.25 16.25 C 31.25 15.730469 30.832031 15.3125 30.3125 15.3125 Z M 30.3125 15.3125 "/>
  </g>
</svg>