<?xml version="1.0" encoding="UTF-8"?>
<svg xmlns="http://www.w3.org/2000/svg" xmlns:xlink="http://www.w3.org/1999/xlink" width="40pt" height="40pt" viewBox="0 0 40 40" version="1.1">
<g id="surface129277">
<path style=" stroke:none;fill-rule:nonzero;fill:rgb(100%,100%,100%);fill-opacity:1;" d="M 12.5625 38.75 C 11.5 38.75 10.625 37.875 10.625 36.8125 C 10.625 35.78125 11.4375 34.9375 12.4375 34.875 L 15.46875 34.71875 L 15.65625 32.3125 C 15.71875 31.71875 16 31.15625 16.46875 30.75 C 16.78125 30.5 17.15625 30.3125 17.5625 30.25 L 18.0625 30.1875 L 18.9375 28.25 C 19.25 27.5625 19.8125 27.0625 20.5 26.84375 L 21.53125 26.53125 L 21.53125 30.59375 L 22.6875 30.71875 C 23.8125 30.84375 24.65625 31.78125 24.65625 32.90625 L 24.65625 34.21875 L 25.75 34.15625 C 25.78125 34.15625 25.8125 34.15625 25.875 34.15625 C 26.34375 34.15625 26.84375 34.34375 27.1875 34.6875 C 27.5625 35.0625 27.78125 35.5625 27.78125 36.09375 L 27.78125 36.8125 C 27.78125 37.875 26.90625 38.75 25.84375 38.75 Z M 12.5625 38.75 "/>
<path style=" stroke:none;fill-rule:nonzero;fill:rgb(26.666667%,29.411765%,32.941176%);fill-opacity:1;" d="M 34.0625 37.8125 L 28.5625 37.8125 C 28.6875 37.5 28.75 37.15625 28.75 36.8125 L 28.75 36.09375 C 28.75 35.3125 28.4375 34.5625 27.84375 34 C 27.28125 33.46875 26.5 33.1875 25.71875 33.21875 L 25.625 33.21875 L 25.625 32.90625 C 25.625 31.28125 24.40625 29.96875 22.8125 29.78125 L 22.5 29.75 L 22.5 26.5625 C 22.5 26.28125 22.375 26 22.125 25.8125 C 21.875 25.625 21.5625 25.59375 21.28125 25.65625 L 20.25 25.96875 C 19.59375 26.15625 19.03125 26.53125 18.5625 27 C 18.21875 27.375 18.21875 27.96875 18.59375 28.3125 C 18.96875 28.65625 19.5625 28.65625 19.90625 28.28125 C 20.09375 28.0625 20.34375 27.90625 20.59375 27.8125 L 20.59375 29.5625 L 18.125 29.3125 C 16.875 29.1875 15.6875 29.75 14.96875 30.78125 C 14.6875 31.21875 14.78125 31.78125 15.1875 32.09375 C 15.625 32.375 16.1875 32.28125 16.5 31.875 C 16.8125 31.40625 17.375 31.15625 17.9375 31.21875 L 22.59375 31.6875 C 23.25 31.75 23.71875 32.28125 23.71875 32.9375 L 23.71875 33.375 L 12.375 34 C 10.84375 34.09375 9.65625 35.34375 9.65625 36.875 C 9.65625 37.21875 9.71875 37.5625 9.84375 37.875 L 1.25 37.875 C 0.71875 37.875 0.3125 38.28125 0.3125 38.8125 C 0.3125 39.34375 0.71875 39.75 1.25 39.75 L 34.0625 39.75 C 34.59375 39.75 35 39.34375 35 38.8125 C 35 38.28125 34.59375 37.8125 34.0625 37.8125 Z M 26.875 36.8125 C 26.875 37.34375 26.4375 37.8125 25.875 37.8125 L 12.5625 37.8125 C 12.03125 37.8125 11.5625 37.375 11.5625 36.8125 C 11.5625 36.28125 11.96875 35.84375 12.5 35.8125 L 25.84375 35.09375 C 26.125 35.09375 26.375 35.1875 26.5625 35.375 C 26.75 35.5625 26.875 35.8125 26.875 36.09375 Z M 26.875 36.8125 "/>
<path style=" stroke:none;fill-rule:nonzero;fill:rgb(44.313725%,76.078431%,100%);fill-opacity:1;" d="M 29.25 19.8125 C 29 19.8125 28.78125 19.71875 28.59375 19.53125 C 28.21875 19.15625 28.21875 18.5625 28.59375 18.21875 L 31.03125 15.78125 C 31.40625 15.40625 32 15.40625 32.34375 15.78125 C 32.71875 16.15625 32.71875 16.75 32.34375 17.09375 L 29.90625 19.53125 C 29.75 19.71875 29.5 19.8125 29.25 19.8125 Z M 10.75 19.8125 C 10.5 19.8125 10.28125 19.71875 10.09375 19.53125 L 7.65625 17.09375 C 7.28125 16.71875 7.28125 16.125 7.65625 15.78125 C 8.03125 15.40625 8.625 15.40625 8.96875 15.78125 L 11.40625 18.21875 C 11.78125 18.59375 11.78125 19.1875 11.40625 19.53125 C 11.21875 19.71875 10.96875 19.8125 10.75 19.8125 Z M 5.65625 12.84375 C 5.136719 12.84375 4.71875 13.261719 4.71875 13.78125 C 4.71875 14.300781 5.136719 14.71875 5.65625 14.71875 C 6.175781 14.71875 6.59375 14.300781 6.59375 13.78125 C 6.59375 13.261719 6.175781 12.84375 5.65625 12.84375 Z M 24.09375 16.8125 C 24 16.8125 23.9375 16.8125 23.84375 16.78125 C 23.34375 16.65625 23.03125 16.125 23.1875 15.625 L 24 12.59375 C 24.125 12.09375 24.65625 11.78125 25.15625 11.9375 C 25.65625 12.0625 25.96875 12.59375 25.8125 13.09375 L 25 16.125 C 24.875 16.53125 24.5 16.8125 24.09375 16.8125 Z M 7.75 25 C 7.65625 25 7.59375 25 7.5 24.96875 L 6 24.5625 C 5.5 24.4375 5.1875 23.90625 5.34375 23.40625 C 5.46875 22.90625 6 22.59375 6.5 22.75 L 8 23.15625 C 8.5 23.28125 8.8125 23.8125 8.65625 24.3125 C 8.53125 24.71875 8.15625 25 7.75 25 Z M 32.25 25 C 31.84375 25 31.46875 24.71875 31.34375 24.3125 C 31.21875 23.8125 31.5 23.3125 32 23.15625 L 35.03125 22.34375 C 35.53125 22.21875 36.03125 22.5 36.1875 23 C 36.3125 23.5 36.03125 24 35.53125 24.15625 L 32.5 24.96875 C 32.40625 24.96875 32.34375 25 32.25 25 Z M 15.90625 16.8125 C 15.5 16.8125 15.125 16.53125 15 16.125 L 13.59375 10.84375 C 13.46875 10.34375 13.75 9.84375 14.25 9.6875 C 14.75 9.5625 15.25 9.84375 15.40625 10.34375 L 16.8125 15.625 C 16.9375 16.125 16.65625 16.625 16.15625 16.78125 C 16.09375 16.8125 16 16.8125 15.90625 16.8125 Z M 34.34375 12.84375 C 33.824219 12.84375 33.40625 13.261719 33.40625 13.78125 C 33.40625 14.300781 33.824219 14.71875 34.34375 14.71875 C 34.863281 14.71875 35.28125 14.300781 35.28125 13.78125 C 35.28125 13.261719 34.863281 12.84375 34.34375 12.84375 Z M 34.34375 12.84375 "/>
<path style=" stroke:none;fill-rule:nonzero;fill:rgb(26.666667%,29.411765%,32.941176%);fill-opacity:1;" d="M 38.75 37.8125 C 38.230469 37.8125 37.8125 38.230469 37.8125 38.75 C 37.8125 39.269531 38.230469 39.6875 38.75 39.6875 C 39.269531 39.6875 39.6875 39.269531 39.6875 38.75 C 39.6875 38.230469 39.269531 37.8125 38.75 37.8125 Z M 38.75 37.8125 "/>
</g>
</svg>
